<svg width="403" height="129" viewBox="0 0 403 129" fill="none" xmlns="http://www.w3.org/2000/svg">
<path d="M336.89 39.2718C336.681 37.6411 336.531 36.7148 336.438 36.4929C335.977 35.3833 335.777 34.3996 335.837 33.5419C335.897 32.6842 335.873 32.2516 335.766 32.2441C336.153 29.7932 337.245 28.038 339.043 26.9786C340.848 25.812 343.283 25.659 346.347 26.5197L351.359 28.8095L358.633 31.0958L363.074 20.7403C364.159 19.0923 364.723 17.9467 364.768 17.3034C364.921 16.6677 365.184 15.9858 365.558 15.2578C366.092 13.7868 366.599 12.691 367.081 11.9705L367.904 9.44235C368.752 8.10105 370.317 7.2947 372.598 7.02328C373.922 6.57718 375.048 6.6559 375.975 7.25944C378.863 7.56908 380.985 8.79491 382.344 10.9369C382.307 11.473 382.086 12.3195 381.682 13.4763C381.277 14.6332 380.901 16.169 380.551 18.0839L375.406 33.8848L376.693 33.9747L380.725 34.0951C381.253 34.2398 381.839 34.3346 382.482 34.3796C384.879 34.0085 386.724 33.8143 388.018 33.797C389.319 33.6726 390.188 33.5717 390.625 33.4945C390.939 33.6242 391.85 33.6879 393.359 33.6857C394.867 33.6834 396.388 34.2746 397.921 35.4592C399.462 36.5365 400.18 37.8257 400.075 39.3267C399.977 40.7205 398.873 41.8822 396.761 42.8119L395.178 44.6406C393.418 45.1639 391.864 45.8094 390.518 46.5772C388.957 47.3299 382.691 48.3462 371.72 49.6261L370.021 57.7492C370.198 58.3003 370.275 58.7366 370.252 59.0582C369.179 63.6159 368.135 69.3069 367.119 76.1311C367.054 78.6045 366.991 80.2701 366.931 81.1278L366.628 85.4699C366.505 85.6768 366.403 86.37 366.321 87.5493C366.133 90.2297 366.234 93.415 366.622 97.1052C367.018 100.688 367.243 102.859 367.298 103.617C367.353 104.375 367.346 105.236 367.279 106.201C367.044 108.016 366.211 109.143 364.78 109.582C361.349 109.342 358.496 108.55 356.219 107.205C354.312 106.749 353.484 106.26 353.736 105.739C353.023 105.15 352.237 104.072 351.377 102.503C351.437 101.646 351.417 101.16 351.317 101.045C350.589 100.671 350.274 99.7867 350.371 98.393C350.272 98.2782 350.191 97.8955 350.128 97.2447L349.284 93.1455C348.409 91.7914 348.207 90.0535 348.679 87.9318C348.709 87.5029 348.585 86.9556 348.309 86.2898L348.387 85.1641C348.447 84.3064 348.546 83.6668 348.683 83.2455C348.357 80.206 348.658 76.6717 349.586 72.6426C350.522 68.5062 351.161 65.5342 351.503 63.7266C351.326 63.1755 351.482 62.4861 351.97 61.6584C352.038 60.6935 352.357 59.2075 352.929 57.2004L355.017 48.1349C354.389 47.8755 353.753 47.7233 353.11 47.6783C347.517 45.9944 344.625 44.9841 344.433 44.6475L342.582 43.3868C341.832 43.3343 340.786 42.8841 339.444 42.0361C338.111 41.081 337.259 40.1595 336.89 39.2718Z" fill="white"/>
<path d="M299.738 48.3816L299.899 48.39C301.311 48.1412 302.867 48.2227 304.568 48.6347C306.274 48.9394 307.175 49.2018 307.271 49.4221C307.474 49.648 307.76 50.3625 308.127 51.5657L315.765 66.0107L318.435 73.5767L319.232 73.7798L321.011 70.6444C321.056 69.7857 321.552 68.5203 322.501 66.8481C323.359 64.8482 324.251 63.2268 325.177 61.9839C326.482 59.6845 327.413 58.3342 327.973 57.933L332.717 53.6615C333.265 53.475 334.055 52.7631 335.089 51.5257C336.732 50.9661 338.147 50.6636 339.334 50.6182L342.29 49.6431L343.9 49.7275C344.979 49.6764 345.99 49.8908 346.934 50.3707C348.115 50.4326 348.327 51.52 347.57 53.6328C347.147 55.5478 346.532 57.0223 345.724 58.0562L345.157 59.6408L342.056 63.3527L341.133 65.5644C341.094 66.3157 340.024 68.2507 337.923 71.3693C334.659 76.1489 332.841 79.0132 332.468 79.9623C331.452 80.8776 330.469 82.1714 329.521 83.8437C328.572 85.5159 327.863 86.7164 327.395 87.4452C326.926 88.174 327.279 89.6455 328.455 91.8595L329.167 93.6726C329.161 93.78 329.935 95.4349 331.49 98.6374C331.586 98.8577 332.405 100.676 333.948 104.094C334.462 104.551 335.058 105.497 335.737 106.932C336.522 108.372 337.065 109.315 337.364 109.761C338.014 111.733 338.534 113.105 338.924 113.879C339.658 114.24 340.009 114.743 339.975 115.387C340.382 115.839 340.611 116.604 340.662 117.683C341.594 118.378 342.23 120.617 342.57 124.402C342.44 124.826 341.725 125.111 340.426 125.258C338.478 125.479 336.551 125.27 334.647 124.632C333.421 123.384 332.543 122.692 332.012 122.557C330.43 121.936 329.54 121.459 329.342 121.126C329.252 120.798 329.26 120.637 329.368 120.643L326.444 117.907C325.5 117.427 324.729 116.74 324.13 115.848L322.469 113.662C321.322 112.956 320.452 112.104 319.859 111.104L318.655 109.427C318.678 108.997 318.432 108.554 317.918 108.096C317.494 107.967 317.189 107.628 317.002 107.08C316.923 106.538 316.946 106.108 317.07 105.792C317.194 105.476 317.042 105.306 316.612 105.284L316.07 106.385C315.618 106.792 314.593 107.868 312.995 109.614C311.397 111.36 310.42 112.547 310.064 113.174C309.714 113.693 309.2 114.258 308.522 114.869C306.828 116.394 305.055 118.4 303.203 120.886C302.13 122.874 300.656 124.304 298.781 125.174C296.905 126.045 294.711 125.822 292.197 124.506C291.259 123.919 290.451 122.908 289.773 121.473C289.196 120.152 289.145 119.073 289.62 118.237C292.324 113.858 294.309 110.895 295.574 109.347C297.494 107.618 298.661 105.903 299.072 104.203C299.592 102.508 300.365 101.096 301.393 99.9659C302.427 98.7286 303.632 96.2626 305.01 92.568L305.916 90.6783L305.339 89.3566C305.345 89.2493 305.249 89.029 305.051 88.6958C303.571 86.1429 302.596 84.2084 302.127 82.8923C301.177 80.4748 300.603 79.0995 300.406 78.7663C300.219 78.2184 299.414 76.1313 297.989 72.5051L295.046 57.8218C294.311 57.4604 293.752 56.8392 293.368 55.9581C293.096 54.9752 293.031 54.1646 293.172 53.5263C294.025 51.6338 295.279 50.3004 296.934 49.5261C297.498 49.0176 298.433 48.6361 299.738 48.3816Z" fill="white"/>
<path d="M277.062 60.6317L277.124 58.8594C277.165 57.6779 277.132 57.0853 277.025 57.0815L276.069 56.7255C275.317 56.6993 274.73 56.5712 274.308 56.3414C273.549 56.53 272.947 56.8316 272.502 57.2462C271.076 58.0567 270.073 59.0434 269.495 60.2061L265.703 67.1714C263.976 70.4448 262.913 74.7094 262.514 79.9649C265.265 81.244 267.308 81.2615 268.642 80.0176C269.416 79.3994 270.087 78.6701 270.654 77.8295C270.895 77.0852 271.349 76.402 272.016 75.78C272.687 75.0507 273.393 73.3009 274.135 70.5308C275.948 67.9055 276.923 64.6058 277.062 60.6317ZM291.322 63.388L291.26 65.1603C290.817 71.7048 288.677 77.5448 284.841 82.6804C284.278 83.4135 283.496 84.2465 282.496 85.1794L278.827 88.6002C278.049 89.3258 277.058 89.9902 275.854 90.5934L272.276 91.4363C271.961 91.2103 271.056 90.9636 269.56 90.6962C268.363 91.0846 267.346 90.9416 266.51 90.2671C266.402 90.2633 265.819 90.0279 264.76 89.5608C263.808 89.0974 262.582 88.7857 261.082 88.6258C261.237 90.3518 261.279 92.2353 261.208 94.276L262.882 101.755C263.985 104.052 265.062 105.541 266.114 106.223C267.276 106.801 268.5 107.167 269.786 107.319C271.182 107.368 272.208 107.242 272.864 106.943C273.627 106.647 274.879 106.207 276.62 105.622L279.898 104.123C282.199 102.913 284.121 103.303 285.665 105.293C286.49 106.289 286.821 107.591 286.658 109.199C286.498 110.699 285.805 112.073 284.578 113.32C283.881 114.802 282.167 116.14 279.437 117.335C279.33 117.331 278.839 117.529 277.965 117.929C273.049 120.123 267.667 120.258 261.819 118.333L258.809 116.776C258.487 116.765 258.17 116.592 257.859 116.259C256.581 115.892 255.213 115.037 253.754 113.696C252.296 112.354 251.259 111.243 250.645 110.361C250.138 109.483 249.782 108.879 249.579 108.549C249.375 108.22 249.024 107.508 248.524 106.415C246.818 102.915 245.59 99.5916 244.839 96.4467L244.036 91.7407C244.266 91.3185 244.363 90.0852 244.326 88.0406L244.416 85.4628C243.51 83.7105 244.237 79.8106 246.599 73.7633C248.603 65.6602 250.166 60.9292 251.289 59.5704L253.53 55.4545C253.534 55.3471 254.206 54.564 255.548 53.1053C255.781 52.5757 257.054 51.5448 259.366 50.0124C259.818 49.3829 260.476 49.0295 261.339 48.9521C261.783 48.5375 262.495 48.1859 263.472 47.8974C264.358 47.1756 265.664 46.7372 267.39 46.5824C269.02 46.1017 271.496 46.0268 274.818 46.3579C282.422 47.2687 287.518 50.6729 290.109 56.5705L291.113 60.1545C291.094 60.6915 291.232 61.3416 291.528 62.1047C291.414 62.3158 291.345 62.7436 291.322 63.388Z" fill="white"/>
<path d="M221.116 47.4264L221.302 45.9785C219.05 45.7242 217.44 45.5348 216.475 45.4105C215.619 45.1806 214.172 44.9404 212.134 44.6898C210.096 44.4392 208.49 44.0887 207.316 43.6383C205.072 42.8466 203.816 40.8899 203.548 37.7679C203.282 34.5385 204.338 32.5684 206.715 31.8574C208.874 31.3576 210.383 31.1153 211.242 31.1303C212.102 31.1453 213.716 31.0659 216.084 30.8923C217.277 30.2682 218.895 29.9202 220.939 29.8484L223.368 29.2458C223.366 29.3533 223.798 29.2533 224.663 28.946L225.528 25.5751C225.558 23.8557 226.072 22.1448 227.069 20.4423C227.082 19.6901 227.817 17.6069 229.274 14.1926C229.282 13.7627 230.303 10.6633 232.339 4.89428C232.778 4.36449 234.411 3.15684 237.239 1.27135C238.973 0.441685 241.381 1.07491 244.462 3.17103C246.168 3.95326 247.332 4.99475 247.954 6.29552C247.298 6.92902 246.95 8.42781 246.908 10.7919C246.788 11.5422 245.966 15.5051 244.444 22.6805L244.365 27.1938C245.223 27.3162 246.615 27.6093 248.542 28.0729C250.576 28.5383 252.985 29.0641 255.77 29.6502C261.124 30.8185 264.471 33.0268 265.812 36.275C266.308 38.6484 266.172 40.3122 265.403 41.2662C264.633 42.2202 262.794 42.8868 259.886 43.266C257.52 43.3322 254.402 43.3315 250.534 43.264C246.773 43.1983 243.974 43.4182 242.138 43.9236C241.889 45.8541 241.756 47.3567 241.737 48.4313L241.533 50.8463C241.52 51.5985 240.967 55.566 239.875 62.7489C239.213 63.7048 238.588 68.6923 238.001 77.7113L237.796 89.4781C237.762 91.4123 237.891 93.242 238.183 94.9669C238.25 97.3329 238.489 99.0032 238.902 99.9778C238.885 100.945 239.118 102.991 239.601 106.117C238.257 109.211 236.081 110.732 233.072 110.679C230.171 110.628 227.61 109.509 225.391 107.32L223.663 104.71C223.356 103.845 223.098 103.249 222.888 102.923C222.786 102.599 222.686 102.221 222.586 101.789C221.871 99.6268 221.303 98.2733 220.883 97.7285C220.253 96.8575 219.942 96.2071 219.949 95.7773C219.957 95.3475 219.966 94.8102 219.978 94.1654C219.795 92.3349 219.553 90.772 219.253 89.4769C218.725 88.9302 218.489 87.0987 218.543 83.9824C218.857 78.2908 218.915 75.0133 218.715 74.1499C219.043 73.8332 219.132 71.7924 218.983 68.0276L219.528 64.4899C219.536 64.06 219.779 62.4519 220.257 59.6654C220.05 59.2319 220.016 58.1026 220.155 56.2777C220.296 54.3453 220.481 53.0049 220.709 52.2564C220.947 50.9706 221.082 49.3606 221.116 47.4264Z" fill="white"/>
<path d="M190.614 69.8206C190.722 69.4981 190.937 67.6173 191.259 64.1781C191.044 63.8557 190.775 62.6735 190.453 60.6314C189.593 58.9118 188.465 57.6221 187.068 56.7623C185.348 56.01 184.327 55.6338 184.004 55.6338C183.037 55.9562 182.339 56.3324 181.909 56.7623C181.586 57.0847 180.673 58.5894 179.168 61.2763C177.771 63.9632 176.589 68.4234 175.621 74.657C174.762 80.8905 174.332 85.4045 174.332 88.1989C174.332 90.9932 174.439 94.4324 174.654 98.5165C174.869 102.493 175.729 104.374 177.234 104.159C178.631 103.944 180.565 100.075 183.037 92.5516C183.145 92.0142 183.521 91.047 184.166 89.6498L190.614 69.8206ZM209.476 63.2108C209.476 68.907 210.067 74.1196 211.249 78.8485C211.787 83.5774 212.754 88.6288 214.151 94.0025C214.474 96.152 214.581 97.2268 214.474 97.2268C217.161 103.138 218.665 106.685 218.988 107.867C219.31 108.942 219.256 109.855 218.826 110.607V110.446C218.504 111.414 217.483 112.273 215.763 113.026C214.151 113.885 212.7 114.423 211.411 114.638C207.327 115.928 204.908 114.369 204.156 109.963C203.726 109.64 203.081 108.995 202.222 108.028C201.469 106.953 201.039 106.094 200.932 105.449C200.824 104.696 200.448 103.998 199.803 103.353C199.588 102.816 199.105 102.117 198.352 101.257C197.6 100.397 197.17 99.5375 197.063 98.6777L196.579 94.325L196.257 94.1637C194.537 97.7104 193.409 100.182 192.871 101.58C191.581 105.234 189.324 109.425 186.1 114.154C182.446 118.238 177.986 119.42 172.72 117.701C170.785 117.593 169.227 117.002 168.044 115.928C166.97 114.853 166.217 114.262 165.787 114.154C165.143 113.939 164.229 113.133 163.047 111.736C161.112 109.157 159.93 105.341 159.5 100.29V96.0983C159.822 95.5609 159.822 92.9815 159.5 88.3601V87.3928C158.855 84.1685 158.533 82.234 158.533 81.5891C158.533 80.9443 158.64 80.0845 158.855 79.0097C159.07 77.935 159.124 77.2901 159.016 77.0752C158.909 76.7527 158.855 76.2691 158.855 75.6242V73.206L159.661 64.5005C160.844 60.7389 162.133 57.3534 163.53 54.3441C163.96 52.517 164.766 51.0661 165.949 49.9914C168.635 47.0895 170.086 45.4237 170.301 44.9937C171.054 43.3816 173.848 42.0919 178.684 41.1246L181.425 41.2858C182.5 41.2858 183.467 41.4471 184.327 41.7695C185.187 41.9844 185.778 42.0919 186.1 42.0919C187.605 42.8442 188.841 43.2204 189.808 43.2204C190.775 43.2204 192.388 43.9727 194.645 45.4774C195.289 45.5849 196.902 46.4984 199.481 48.218C202.275 50.0451 203.887 51.0661 204.317 51.2811L208.509 52.732C209.691 53.6993 210.282 54.2366 210.282 54.3441C210.282 54.4516 210.013 57.4072 209.476 63.2108Z" fill="white"/>
<path d="M116.178 35.9134C115.855 34.3013 115.64 33.3877 115.533 33.1728C114.995 32.098 114.727 31.1307 114.727 30.2709C114.727 29.4111 114.673 28.9812 114.566 28.9812C114.781 26.5093 115.748 24.6822 117.467 23.5C119.187 22.2103 121.605 21.8878 124.722 22.5327L129.881 24.4673L137.297 26.2406L141.005 15.6005C141.972 13.8809 142.455 12.6987 142.455 12.0539C142.563 11.409 142.778 10.7104 143.1 9.95808C143.53 8.45342 143.96 7.32493 144.39 6.5726L145.035 3.99319C145.787 2.59601 147.292 1.68247 149.549 1.25257C150.839 0.715189 151.967 0.715189 152.934 1.25257C155.836 1.36005 158.039 2.4348 159.544 4.47683C159.544 5.01421 159.383 5.87401 159.06 7.05624C158.738 8.23847 158.469 9.79686 158.254 11.7314L154.224 27.8527H155.514L159.544 27.6915C160.081 27.799 160.673 27.8527 161.317 27.8527C163.682 27.3154 165.509 26.9929 166.799 26.8855C168.088 26.6705 168.948 26.5093 169.378 26.4018C169.7 26.5093 170.614 26.5093 172.119 26.4018C173.623 26.2943 175.182 26.778 176.794 27.8527C178.406 28.82 179.212 30.056 179.212 31.5606C179.212 32.9578 178.191 34.1938 176.149 35.2685L174.698 37.2031C172.978 37.8479 171.474 38.6003 170.184 39.4601C168.679 40.3199 162.5 41.7708 151.645 43.8128L150.516 52.0347C150.731 52.5721 150.839 53.002 150.839 53.3244C150.086 57.9459 149.441 63.6958 148.904 70.5742C149.011 73.0462 149.065 74.712 149.065 75.5718V79.9246C148.958 80.1395 148.904 80.8381 148.904 82.0203C148.904 84.7072 149.226 87.8778 149.871 91.5319C150.516 95.0786 150.892 97.2281 151 97.9805C151.107 98.7328 151.161 99.5926 151.161 100.56C151.053 102.387 150.301 103.569 148.904 104.107C145.465 104.107 142.563 103.515 140.198 102.333C138.264 102.011 137.404 101.581 137.619 101.043C136.867 100.506 136.007 99.4851 135.04 97.9805C135.04 97.1206 134.986 96.637 134.878 96.5295C134.126 96.2071 133.75 95.3473 133.75 93.9501C133.642 93.8426 133.535 93.4665 133.428 92.8216L132.299 88.7913C131.332 87.5016 131.009 85.782 131.332 83.6325C131.332 83.2026 131.171 82.6652 130.848 82.0203V80.8919C130.848 80.0321 130.902 79.3872 131.009 78.9573C130.472 75.948 130.526 72.4013 131.171 68.3172C131.815 64.1257 132.245 61.1164 132.46 59.2893C132.245 58.7519 132.353 58.0533 132.783 57.1935C132.783 56.2262 132.998 54.7216 133.428 52.6796L134.878 43.4904C134.234 43.2755 133.589 43.168 132.944 43.168C127.248 41.8783 124.292 41.0722 124.077 40.7498L122.143 39.6213C121.39 39.6213 120.316 39.2451 118.918 38.4928C117.521 37.633 116.608 36.7732 116.178 35.9134Z" fill="white"/>
<path d="M89.9207 72.1538C89.7907 70.8661 89.8013 68.3936 89.9525 64.7363L90.9851 59.2362L94.0879 52.2488L96.6107 48.98C96.5956 48.1203 99.369 46.8895 104.931 45.2875L105.092 45.2847C106.272 45.1566 108.101 45.2322 110.578 45.5114C113.162 45.7888 115.653 46.8203 118.049 48.6058C120.443 50.2839 122.08 51.7064 122.96 52.8735C125.296 57.3474 126.336 61.5214 126.081 65.3955C126.1 66.4701 125.585 67.769 124.537 69.2922C124.433 69.509 123.633 69.8454 122.136 70.3015C120.639 70.7576 119.404 70.8329 118.431 70.5274C117.457 70.1145 116.317 69.4894 115.013 68.6523C113.708 67.8151 113.094 66.4822 113.169 64.6535C112.183 63.5958 111.944 62.2026 112.451 60.4738C112.644 59.1806 112.466 58.2163 111.917 57.5809L109.969 56.8087C109.328 57.0349 108.7 58.0133 108.085 59.7439C107.578 61.4726 107.346 63.5727 107.389 66.0443C107.468 70.5576 108.667 74.6213 110.988 78.2355C111.761 79.4045 113.074 80.7789 114.929 82.3589L117.893 85.8544L122.151 89.6498L125.287 93.7872C126.052 94.5263 127.102 96.1741 128.437 98.7306C129.877 101.178 130.615 103.422 130.65 105.464C130.684 107.398 130.136 109.88 129.007 112.91L127.593 115.03C127.596 115.245 127.017 115.954 125.856 117.157C122.689 120.437 119.231 122.486 115.483 123.304L114.355 123.323C110.923 123.813 107.537 123.819 104.197 123.339L99.1775 122.137C98.6402 122.146 98.0454 121.942 97.3932 121.523C96.7428 121.212 96.1471 120.954 95.606 120.748C93.1064 119.18 91.5794 117.916 91.0252 116.959C90.4823 116.646 90.08 115.148 89.8181 112.465C89.0378 110.866 89.1605 108.66 90.1864 105.848C90.1582 104.236 90.2978 102.997 90.6052 102.132C92.6057 99.7323 95.229 99.149 98.4753 100.382C99.5574 100.793 100.11 101.644 100.132 102.933C100.138 103.256 100.319 104.381 100.675 106.31C101.137 108.129 101.811 109.837 102.699 111.434C103.587 113.031 104.783 113.816 106.288 113.79C107.792 113.764 109.34 113.145 110.931 111.935C112.592 108.574 113.42 106.732 113.414 106.41L113.697 104.148C113.884 102.532 113.372 100.875 112.159 99.176C111.815 97.8921 111.04 96.6157 109.835 95.3468L107.356 91.8429L104.898 89.6285C104.467 89.5285 103.108 88.6923 100.824 87.1198C100.711 86.7993 100.106 86.0574 99.0111 84.8941C97.9159 83.7308 96.8697 82.2979 95.8726 80.5955C94.8736 78.7855 93.6097 77.1952 92.0809 75.8245C91.9603 75.0742 91.2402 73.8506 89.9207 72.1538Z" fill="white"/>
<path d="M67.5163 88.9076L66.454 86.2024L64.3048 75.4696C63.6965 73.4476 63.3642 71.631 63.3079 70.0199L63.7048 62.9083C63.6636 61.7268 63.6948 61.0804 63.7984 60.9693C62.5095 61.0143 60.6305 62.6393 58.1614 65.8442C57.9579 66.1739 57.6544 66.7222 57.251 67.4891C52.9911 74.8431 50.6078 83.5833 50.1011 93.7099C49.3056 95.5659 48.2097 96.5182 46.8133 96.567C43.8908 96.0238 42.2684 95.7578 41.9461 95.7691L40.8239 95.9696L38.7294 96.0427C36.2515 95.9142 34.6066 95.0037 33.7947 93.3114C33.3463 92.7894 33.0828 91.4006 33.004 89.145L32.9252 86.8894L32.1324 78.0449L31.6711 64.8335C31.6186 63.3298 31.4455 61.4538 31.1519 59.2057C30.8508 56.7428 30.6621 52.8779 30.5857 47.6111C30.5056 42.2368 30.3525 39.3923 30.1264 39.0776C29.8966 38.6555 29.7704 38.1222 29.7479 37.4777C29.7254 36.8333 29.864 36.1832 30.1638 35.5275C30.4635 34.8717 31.8891 34.1229 34.4407 33.281C35.807 32.373 36.9735 31.9021 37.9402 31.8684C39.4552 32.1381 41.4111 32.715 43.8079 33.5992C45.4303 33.8652 46.2902 35.3945 46.3878 38.1871C46.7639 42.7983 46.8802 46.128 46.7366 48.1762C46.7005 50.2208 46.8986 54.3542 47.3309 60.5765C54.7467 45.0467 61.515 35.6156 67.636 32.2832C68.1543 31.7274 68.9505 31.4307 70.0246 31.3932C71.0987 31.3557 72.3527 31.8496 73.7865 32.8749C75.2203 33.9003 76.2114 34.5647 76.7597 34.8682C77.308 35.1716 77.9175 35.6881 78.5882 36.4174C79.3664 37.143 79.974 37.6057 80.4111 37.8056C81.7751 39.9087 82.2199 44.9476 81.7456 52.9222C81.6794 54.1075 81.6095 55.1853 81.5359 56.1558C81.4585 57.0188 81.4723 58.9541 81.5773 61.9615C81.6823 64.969 81.8092 67.0616 81.9579 68.2394C82.4114 71.9875 82.6494 74.1838 82.6719 74.8282L83.6912 80.9225C84.8516 83.3554 85.4562 85.27 85.5049 86.6663C85.6574 87.9515 86.6972 90.0122 88.6244 92.8485C89.4326 94.4334 89.1553 95.7336 87.7928 96.7491C85.6821 97.8982 84.5156 98.3691 84.2933 98.1618C84.1821 98.0581 83.5951 98.1861 82.5322 98.5459C81.4732 99.013 79.5435 99.188 76.7434 99.0707C75.3358 98.7972 73.9094 97.9867 72.4644 96.6391L69.9632 94.3068C69.0589 93.0479 68.4194 91.6722 68.0447 90.1797C67.4889 89.6614 67.3128 89.2374 67.5163 88.9076Z" fill="white"/>
<path d="M8.72438 1.64272C15.9154 1.26586 21.0357 2.45042 24.0854 5.19641C24.1811 7.02099 23.1409 10.7885 20.9648 16.4989C20.6311 18.346 20.0094 19.8315 19.0997 20.9554L17.1165 23.158C16.5967 23.5081 16.0685 23.6972 15.5319 23.7253C11.7187 24.8938 8.67413 24.3 6.3982 21.9439C5.93514 21.3225 5.37318 20.8676 4.71234 20.5794C4.15883 20.2855 3.67889 19.3421 3.27253 17.749C2.23346 16.4044 1.69423 15.3564 1.65486 14.6051C1.09146 7.96201 3.28698 3.64966 8.2414 1.66804L8.72438 1.64272ZM9.42763 39.7044C10.4728 39.1115 13.0231 39.5159 17.0786 40.9178C17.5304 41.3246 18.1969 41.7201 19.078 42.1044L21.7636 44.0623C22.2154 44.4692 22.4666 45.1555 22.5173 46.1215L23.2597 60.2888C23.3722 62.4354 23.3661 64.3729 23.2415 66.1014L23.2921 67.0673C23.2007 71.4847 23.9894 81.3985 25.658 96.8087C26.1374 99.797 25.5354 101.658 23.8519 102.392C22.0274 102.488 20.8327 102.281 20.2679 101.773C19.8274 101.581 19.4461 101.493 19.1241 101.51L17.9971 101.569L17.0481 101.942C16.7261 101.958 16.1245 101.775 15.2434 101.39C14.3567 100.899 13.7382 100.393 13.3881 99.8733C13.1453 99.3479 12.6992 99.0484 12.0496 98.9748C10.8465 98.6074 10.1603 97.8362 9.9911 96.6612C8.33663 93.8421 7.44167 92.167 7.30622 91.636C7.2781 91.0993 7.08617 90.5175 6.73043 89.8904L5.19143 75.9262C5.10706 74.3163 5.1497 73.0764 5.31936 72.2066L5.11687 68.3427C5.16232 67.1565 5.15715 65.0043 5.10136 61.8862C5.03994 58.6607 5.06594 56.0764 5.17935 54.1332C4.81845 51.354 4.61269 49.4813 4.56206 48.5154C4.51144 47.5494 4.52854 46.849 4.61337 46.4141C3.37089 45.2953 3.34018 43.6826 4.52125 41.5759C5.86026 40.4295 7.17374 39.8225 8.46168 39.755L9.42763 39.7044Z" fill="white"/>
</svg>
