<svg width="404" height="133" viewBox="0 0 404 133" fill="none" xmlns="http://www.w3.org/2000/svg">
<path d="M336.398 35.2256C336.103 33.6081 335.904 32.691 335.801 32.4742C335.282 31.3902 335.03 30.4184 335.045 29.5587C335.06 28.699 335.014 28.2682 334.907 28.2664C335.165 25.7986 336.164 23.9886 337.904 22.8366C339.646 21.5771 342.069 21.2969 345.174 21.9961L350.298 24.0204L357.682 25.9229L361.575 15.3491C362.572 13.6467 363.076 12.4731 363.088 11.8283C363.206 11.1854 363.434 10.4907 363.769 9.74412C364.225 8.2472 364.675 7.12638 365.118 6.38167L365.807 3.8139C366.584 2.43007 368.104 1.54292 370.368 1.15247C371.667 0.637688 372.796 0.657383 373.753 1.21156C376.653 1.36967 378.837 2.48271 380.306 4.55069C380.297 5.08799 380.12 5.94484 379.777 7.12126C379.434 8.29769 379.138 9.85115 378.89 11.7817L374.579 27.8302L375.868 27.8527L379.901 27.7618C380.436 27.8787 381.026 27.9427 381.671 27.954C384.044 27.4579 385.877 27.1675 387.168 27.0825C388.462 26.8901 389.324 26.7439 389.756 26.644C390.076 26.757 390.99 26.773 392.496 26.6918C394.002 26.6106 395.552 27.1214 397.145 28.2241C398.74 29.2193 399.525 30.4692 399.498 31.9736C399.474 33.3706 398.431 34.5885 396.371 35.6275L394.887 37.5364C393.156 38.1512 391.638 38.8771 390.334 39.7143C388.814 40.5477 382.61 41.8906 371.721 43.7428L370.449 51.9438C370.655 52.4848 370.755 52.9165 370.749 53.2389C369.916 57.8465 369.171 63.5843 368.514 70.4523C368.578 72.9258 368.603 74.5923 368.588 75.452L368.512 79.8041C368.401 80.0171 368.335 80.7146 368.314 81.8967C368.267 84.5832 368.534 87.7588 369.115 91.4237C369.698 94.9811 370.037 97.1369 370.131 97.891C370.225 98.645 370.264 99.5056 370.247 100.473C370.108 102.298 369.335 103.467 367.929 103.98C364.49 103.92 361.599 103.278 359.255 102.055C357.327 101.698 356.475 101.254 356.699 100.72C355.956 100.17 355.114 99.1337 354.173 97.6124C354.188 96.7527 354.143 96.2682 354.038 96.1589C353.291 95.8234 352.93 94.9571 352.954 93.5602C352.849 93.4508 352.748 93.0729 352.652 92.4262L351.594 88.3768C350.649 87.0704 350.357 85.3455 350.716 83.2019C350.724 82.7721 350.572 82.232 350.261 81.5816L350.281 80.4533C350.296 79.5936 350.361 78.9498 350.476 78.5218C349.991 75.5036 350.107 71.9584 350.823 67.8862C351.54 63.7065 352.023 60.7052 352.27 58.8821C352.064 58.3411 352.184 57.6445 352.629 56.7923C352.645 55.8252 352.887 54.3245 353.352 52.2903L354.963 43.1279C354.322 42.9017 353.679 42.783 353.035 42.7717C347.362 41.3828 344.421 40.5253 344.211 40.1991L342.297 39.0371C341.545 39.0239 340.477 38.6291 339.093 37.8525C337.711 36.9684 336.812 36.0928 336.398 35.2256Z" fill="black"/>
<path d="M299.773 46.2673H299.934C301.331 45.9449 302.89 45.9449 304.609 46.2673C306.329 46.4823 307.242 46.6972 307.35 46.9122C307.565 47.1271 307.887 47.8257 308.317 49.008L316.7 63.0335L319.763 70.4493L320.569 70.6105L322.181 67.3863C322.181 66.5265 322.611 65.2368 323.471 63.5171C324.223 61.4751 325.029 59.8092 325.889 58.5195C327.071 56.1551 327.931 54.7579 328.469 54.328L332.983 49.814C333.52 49.5991 334.272 48.8468 335.24 47.557C336.852 46.9122 338.249 46.536 339.431 46.4286L342.333 45.3001H343.945C345.02 45.1926 346.041 45.3538 347.008 45.7837C348.19 45.7837 348.459 46.8585 347.814 49.008C347.492 50.9425 346.954 52.4472 346.202 53.5219L345.718 55.1341L342.817 59.0032L342.011 61.2602C342.011 62.0125 341.043 64.0008 339.109 67.225C336.099 72.1689 334.434 75.1245 334.111 76.0918C333.144 77.059 332.23 78.4025 331.37 80.1221C330.511 81.8417 329.866 83.0777 329.436 83.83C329.006 84.5823 329.436 86.0332 330.726 88.1828L331.532 89.9561C331.532 90.0636 332.392 91.6757 334.111 94.7925C334.219 95.0074 335.132 96.7808 336.852 100.113C337.389 100.542 338.034 101.456 338.786 102.853C339.646 104.25 340.237 105.164 340.56 105.594C341.312 107.528 341.903 108.872 342.333 109.624C343.085 109.947 343.461 110.43 343.461 111.075C343.891 111.505 344.16 112.257 344.268 113.332C345.235 113.977 345.987 116.18 346.525 119.942C346.417 120.372 345.718 120.694 344.429 120.909C342.494 121.231 340.56 121.124 338.625 120.587C337.335 119.404 336.422 118.76 335.884 118.652C334.272 118.115 333.359 117.685 333.144 117.362C333.036 117.04 333.036 116.879 333.144 116.879L330.081 114.299C329.114 113.869 328.307 113.225 327.663 112.365L325.889 110.269C324.707 109.624 323.793 108.818 323.149 107.851L321.859 106.239C321.859 105.809 321.59 105.379 321.053 104.949C320.623 104.841 320.301 104.519 320.086 103.982C319.978 103.444 319.978 103.014 320.086 102.692C320.193 102.37 320.032 102.208 319.602 102.208L319.118 103.337C318.688 103.767 317.721 104.895 316.216 106.722C314.712 108.549 313.798 109.785 313.476 110.43C313.153 110.968 312.67 111.559 312.025 112.204C310.413 113.816 308.747 115.911 307.027 118.491C306.06 120.533 304.663 122.037 302.836 123.005C301.009 123.972 298.805 123.865 296.226 122.682C295.259 122.145 294.399 121.178 293.647 119.781C293.002 118.491 292.894 117.416 293.324 116.556C295.796 112.042 297.623 108.979 298.805 107.367C300.633 105.54 301.707 103.767 302.03 102.047C302.46 100.327 303.158 98.8766 304.125 97.6943C305.093 96.4046 306.168 93.879 307.35 90.1173L308.156 88.1828L307.511 86.893C307.511 86.7856 307.403 86.5706 307.189 86.2482C305.576 83.7763 304.502 81.8954 303.964 80.6057C302.889 78.2413 302.245 76.8978 302.03 76.5754C301.815 76.038 300.901 73.996 299.289 70.4493L295.581 55.9401C294.829 55.6177 294.238 55.0266 293.808 54.1668C293.485 53.1995 293.378 52.3934 293.485 51.7486C294.238 49.814 295.42 48.4168 297.032 47.557C297.569 47.0197 298.483 46.5898 299.773 46.2673Z" fill="black"/>
<path d="M277.769 59.6873L277.738 57.9142C277.717 56.7321 277.653 56.1421 277.546 56.1439L276.573 55.8384C275.821 55.8516 275.228 55.7544 274.794 55.547C274.046 55.7751 273.461 56.1077 273.038 56.5451C271.656 57.4291 270.707 58.4669 270.19 59.6583L266.768 66.8125C265.214 70.1719 264.376 74.4862 264.253 79.7554C267.067 80.8887 269.108 80.7993 270.375 79.4873C271.116 78.8294 271.748 78.066 272.27 77.1969C272.472 76.441 272.889 75.735 273.523 75.079C274.155 74.3155 274.768 72.5312 275.364 69.726C277.037 67.0095 277.838 63.6632 277.769 59.6873ZM292.154 61.6935L292.185 63.4666C292.085 70.0253 290.253 75.9693 286.692 81.2986C286.168 82.0602 285.43 82.933 284.48 83.917L280.996 87.5251C280.257 88.2904 279.302 89.0058 278.131 89.6712L274.602 90.7002C274.276 90.4909 273.358 90.2919 271.85 90.1033C270.676 90.5537 269.653 90.4641 268.782 89.8343C268.675 89.8362 268.08 89.6316 266.998 89.2205C266.023 88.8076 264.783 88.5605 263.276 88.4793C263.521 90.1949 263.662 92.0736 263.697 94.1153L265.761 101.496C266.982 103.732 268.136 105.163 269.222 105.789C270.413 106.306 271.655 106.607 272.946 106.692C274.343 106.667 275.361 106.488 276 106.155C276.747 105.819 277.974 105.314 279.682 104.639L282.878 102.971C285.112 101.642 287.052 101.931 288.698 103.837C289.574 104.789 289.973 106.072 289.893 107.686C289.812 109.192 289.192 110.6 288.032 111.91C287.414 113.426 285.773 114.852 283.109 116.188C283.001 116.19 282.521 116.414 281.669 116.859C276.875 119.307 271.507 119.723 265.567 118.107L262.479 116.71C262.157 116.715 261.832 116.56 261.504 116.243C260.209 115.943 258.797 115.162 257.271 113.898C255.744 112.635 254.65 111.579 253.991 110.731C253.438 109.881 253.052 109.296 252.831 108.978C252.611 108.659 252.222 107.967 251.666 106.902C249.78 103.495 248.379 100.241 247.465 97.1396L246.416 92.4821C246.624 92.0485 246.656 90.8118 246.513 88.7719L246.468 86.1929C245.471 84.4904 245.993 80.5579 248.035 74.3952C249.612 66.1983 250.926 61.392 251.976 59.9762L253.998 55.7488C253.996 55.6413 254.627 54.8241 255.89 53.2972C256.096 52.7561 257.313 51.66 259.541 50.0087C259.96 49.3564 260.598 48.9691 261.456 48.8466C261.878 48.4093 262.57 48.021 263.532 47.6817C264.378 46.9145 265.659 46.4084 267.375 46.1635C268.977 45.5981 271.446 45.3937 274.781 45.5505C282.422 46.0621 287.69 49.1949 290.585 54.9489L291.775 58.4754C291.785 59.0127 291.957 59.6546 292.293 60.4012C292.189 60.618 292.143 61.0487 292.154 61.6935Z" fill="black"/>
<path d="M221.209 49.4282L221.319 47.9725C219.056 47.8365 217.439 47.7316 216.469 47.658C215.602 47.4731 214.144 47.309 212.096 47.1654C210.048 47.0219 208.425 46.7559 207.229 46.3675C204.947 45.6944 203.591 43.806 203.16 40.7024C202.725 37.4914 203.676 35.4686 206.013 34.6342C208.142 34.0222 209.636 33.7011 210.496 33.6711C211.355 33.6411 212.962 33.4775 215.318 33.1801C216.477 32.4944 218.075 32.0622 220.112 31.8835L222.506 31.1547C222.51 31.2621 222.936 31.1397 223.784 30.7874L224.471 27.3759C224.411 25.6573 224.835 23.9219 225.741 22.1696C225.715 21.4177 226.34 19.2988 227.616 15.813C227.601 15.3833 228.459 12.2347 230.19 6.36701C230.601 5.81496 232.169 4.52348 234.894 2.49258C236.583 1.57328 239.02 2.07964 242.206 4.01166C243.951 4.70352 245.168 5.68266 245.858 6.94907C245.236 7.61604 244.966 9.13103 245.048 11.494C244.967 12.2497 244.354 16.2501 243.209 23.4953L243.367 28.0065C244.23 28.0839 245.635 28.3037 247.584 28.6658C249.64 29.0242 252.073 29.4231 254.885 29.8627C260.293 30.7492 263.751 32.7793 265.26 35.9528C265.879 38.2971 265.83 39.9657 265.112 40.9586C264.394 41.9516 262.592 42.7135 259.707 43.2444C257.348 43.4343 254.235 43.5968 250.368 43.7319C246.609 43.8631 243.826 44.2292 242.018 44.83C241.871 46.7709 241.816 48.2784 241.854 49.3525L241.777 51.7748C241.803 52.5267 241.459 56.5177 240.743 63.748C240.133 64.7372 239.77 69.7505 239.655 78.7879L240.066 90.5493C240.134 92.4827 240.359 94.303 240.741 96.0103C240.931 98.3696 241.257 100.025 241.721 100.977C241.755 101.943 242.094 103.975 242.74 107.071C241.56 110.231 239.466 111.863 236.459 111.968C233.559 112.07 230.943 111.086 228.613 109.016L226.75 106.5C226.398 105.652 226.109 105.071 225.883 104.756C225.764 104.438 225.644 104.065 225.521 103.64C224.694 101.518 224.057 100.196 223.608 99.6735C222.934 98.8367 222.589 98.2035 222.574 97.7739C222.559 97.3443 222.54 96.8072 222.518 96.1628C222.239 94.3443 221.916 92.7962 221.549 91.5186C220.993 91.0003 220.661 89.1837 220.552 86.0688C220.568 80.3686 220.454 77.0925 220.209 76.2408C220.52 75.9073 220.502 73.8646 220.156 70.1128L220.516 66.5514C220.501 66.1217 220.66 64.5031 220.992 61.6954C220.762 61.2733 220.669 60.1473 220.712 58.3176C220.752 56.3805 220.867 55.0322 221.055 54.2729C221.225 52.9765 221.276 51.3616 221.209 49.4282Z" fill="black"/>
<path d="M191.921 73.3879C192.011 73.0603 192.127 71.1708 192.269 67.7195C192.038 67.4087 191.708 66.2422 191.279 64.2198C190.33 62.5476 189.136 61.3187 187.695 60.5332C185.939 59.8719 184.899 59.5497 184.577 59.5665C183.628 59.9392 182.95 60.3514 182.544 60.8032C182.238 61.142 181.405 62.6924 180.043 65.4544C178.788 68.2107 177.841 72.7267 177.201 79.0024C176.669 85.2724 176.476 89.8027 176.622 92.5932C176.768 95.3837 177.056 98.8126 177.484 102.88C177.907 106.84 178.864 108.673 180.355 108.38C181.739 108.092 183.469 104.127 185.544 96.4844C185.623 95.9421 185.948 94.9565 186.519 93.5275L191.921 73.3879ZM210.411 65.8001C210.709 71.4885 211.572 76.663 213 81.3235C213.784 86.0178 215.015 91.0116 216.691 96.3049C217.126 98.4346 217.289 99.5023 217.182 99.5079C220.174 105.27 221.863 108.733 222.246 109.897C222.625 110.954 222.619 111.869 222.229 112.642L222.22 112.481C221.949 113.464 220.974 114.376 219.297 115.218C217.732 116.161 216.311 116.773 215.034 117.055C211.023 118.557 208.527 117.127 207.545 112.766C207.099 112.467 206.421 111.857 205.512 110.936C204.704 109.902 204.23 109.066 204.089 108.427C203.942 107.682 203.53 107.004 202.852 106.393C202.609 105.868 202.09 105.196 201.293 104.376C200.497 103.557 200.023 102.721 199.871 101.868L199.16 97.5466L198.829 97.4024C197.298 101.034 196.3 103.562 195.837 104.985C194.74 108.702 192.705 113.006 189.733 117.897C186.298 122.167 181.905 123.581 176.556 122.139C174.619 122.133 173.032 121.624 171.795 120.613C170.665 119.596 169.883 119.045 169.448 118.96C168.793 118.779 167.838 118.022 166.585 116.689C164.518 114.214 163.137 110.466 162.444 105.444L162.224 101.258C162.518 100.705 162.383 98.1287 161.819 93.5304L161.769 92.5645C160.956 89.3784 160.533 87.4633 160.499 86.8194C160.465 86.1754 160.528 85.3112 160.686 84.2266C160.844 83.1421 160.864 82.4953 160.746 82.2863C160.622 81.9699 160.543 81.4898 160.509 80.8458L160.382 78.4309L160.732 69.6951C161.715 65.8768 162.826 62.4285 164.064 59.3501C164.398 57.5031 165.127 56.0119 166.251 54.8768C168.782 51.8383 170.144 50.0988 170.336 49.6582C171.003 48.0089 173.726 46.5748 178.505 45.3557L181.251 45.3732C182.324 45.317 183.298 45.4274 184.174 45.7043C185.044 45.874 185.64 45.9504 185.962 45.9335C187.504 46.6061 188.758 46.917 189.723 46.8664C190.689 46.8158 192.339 47.4827 194.671 48.8672C195.321 48.9408 196.979 49.7687 199.645 51.3509C202.531 53.0293 204.194 53.9645 204.635 54.1567L208.896 55.3862C210.128 56.2903 210.746 56.796 210.752 56.9033C210.757 57.0107 210.644 59.9763 210.411 65.8001Z" fill="black"/>
<path d="M115.812 43.4229C115.405 41.8299 115.143 40.9288 115.024 40.7198C114.431 39.6746 114.112 38.7228 114.067 37.8641C114.022 37.0055 113.946 36.579 113.839 36.5846C113.924 34.1048 114.794 32.2296 116.45 30.959C118.1 29.5811 120.498 29.1325 123.644 29.6134L128.897 31.2753L136.395 32.6581L139.541 21.8386C140.417 20.0707 140.838 18.8648 140.805 18.2208C140.878 17.5712 141.056 16.8623 141.339 16.0942C141.689 14.5691 142.06 13.4196 142.45 12.6458L142.959 10.0362C143.637 8.60156 145.092 7.61052 147.323 7.06308C148.583 6.45895 149.71 6.39989 150.704 6.8859C153.607 6.84136 155.864 7.79934 157.473 9.75982C157.501 10.2965 157.385 11.1635 157.125 12.361C156.865 13.5585 156.678 15.1288 156.565 17.072L153.384 33.3821L154.672 33.3146L158.688 32.9427C159.23 33.0219 159.824 33.0446 160.468 33.0109C162.801 32.3505 164.608 31.9329 165.891 31.7581C167.167 31.4759 168.018 31.2699 168.441 31.1401C168.769 31.2305 169.681 31.1827 171.178 30.9966C172.675 30.8106 174.257 31.212 175.923 32.2009C177.583 33.0825 178.453 34.2746 178.532 35.7772C178.605 37.1724 177.65 38.4601 175.667 39.6403L174.319 41.6481C172.636 42.3821 171.173 43.2121 169.93 44.1383C168.472 45.0756 162.377 46.848 151.643 49.4553L150.947 57.725C151.189 58.2504 151.319 58.6741 151.336 58.9961C150.827 63.6505 150.484 69.4264 150.307 76.3235C150.544 78.7864 150.685 80.4472 150.73 81.3058L150.957 85.6526C150.861 85.8729 150.844 86.5733 150.906 87.7539C151.047 90.4371 151.535 93.5864 152.37 97.2018C153.199 100.71 153.688 102.837 153.834 103.582C153.981 104.328 154.08 105.184 154.13 106.15C154.119 107.98 153.429 109.2 152.062 109.81C148.627 109.99 145.699 109.551 143.276 108.495C141.327 108.274 140.446 107.889 140.632 107.342C139.853 106.844 138.941 105.87 137.896 104.418C137.851 103.559 137.772 103.079 137.659 102.977C136.891 102.695 136.47 101.856 136.397 100.46C136.284 100.359 136.157 99.9887 136.016 99.3504L134.678 95.3846C133.645 94.1473 133.233 92.4469 133.442 90.2835C133.42 89.8542 133.231 89.326 132.875 88.6989L132.816 87.5719C132.771 86.7133 132.791 86.0665 132.876 85.6316C132.181 82.6545 132.05 79.1099 132.48 74.9977C132.904 70.7781 133.176 67.7505 133.295 65.9146C133.052 65.3892 133.123 64.686 133.507 63.8048C133.457 62.8389 133.593 61.325 133.915 59.2633L134.883 50.0108C134.228 49.8299 133.578 49.7563 132.934 49.7901C127.179 48.8003 124.185 48.15 123.953 47.8393L121.962 46.8136C121.211 46.8529 120.118 46.5335 118.683 45.8554C117.243 45.0699 116.286 44.259 115.812 43.4229Z" fill="black"/>
<path d="M91.4871 80.9877C91.2899 79.7086 91.1711 77.239 91.1306 73.5787L91.874 68.0321L94.6069 60.8919L96.9551 57.4956C96.8951 56.6379 99.6002 55.2636 105.07 53.3727L105.231 53.3615C106.403 53.1718 108.233 53.1516 110.722 53.3008C113.317 53.4425 115.858 54.3422 118.344 55.9999C120.823 57.5504 122.532 58.8853 123.472 60.0047C126.039 64.3502 127.296 68.4641 127.244 72.3462C127.319 73.4184 126.873 74.7424 125.906 76.3184C125.814 76.5403 125.032 76.9182 123.561 77.452C122.09 77.9858 120.861 78.1256 119.874 77.8715C118.879 77.5101 117.708 76.9455 116.361 76.1778C115.015 75.41 114.331 74.1111 114.311 72.281C113.271 71.2763 112.959 69.8975 113.376 68.1446C113.5 66.8431 113.272 65.8894 112.691 65.2836L110.705 64.6144C110.076 64.8739 109.501 65.8838 108.977 67.6442C108.561 69.3971 108.439 71.5065 108.612 73.9724C108.927 78.4754 110.337 82.4707 112.844 85.9586C113.677 87.0854 115.061 88.3893 116.996 89.87L120.138 93.2056L124.589 96.7729L127.937 100.741C128.74 101.439 129.875 103.029 131.341 105.512C132.907 107.881 133.762 110.084 133.904 112.121C134.039 114.05 133.622 116.558 132.653 119.642L131.351 121.834C131.366 122.048 130.825 122.786 129.728 124.048C126.737 127.49 123.391 129.717 119.691 130.73L118.566 130.808C115.165 131.477 111.784 131.66 108.423 131.356L103.347 130.418C102.811 130.456 102.206 130.282 101.533 129.898C100.867 129.622 100.259 129.395 99.7079 129.218C97.1295 127.782 95.5386 126.601 94.935 125.673C94.3765 125.389 93.8963 123.914 93.4944 121.249C92.6315 119.693 92.6386 117.484 93.5158 114.622C93.4034 113.013 93.478 111.769 93.7396 110.889C95.6118 108.388 98.201 107.668 101.507 108.73C102.609 109.084 103.206 109.904 103.296 111.19C103.318 111.512 103.558 112.627 104.014 114.534C104.57 116.327 105.334 117.997 106.304 119.545C107.274 121.094 108.51 121.815 110.011 121.71C111.512 121.605 113.025 120.907 114.551 119.615C116.034 116.171 116.764 114.289 116.741 113.967L116.906 111.693C117.008 110.07 116.409 108.442 115.11 106.809C114.698 105.545 113.858 104.311 112.588 103.107L109.929 99.7374L107.359 97.6546C106.922 97.5774 105.522 96.8134 103.158 95.3626C103.029 95.0485 102.386 94.3392 101.232 93.2348C100.077 92.1304 98.9575 90.7543 97.8727 89.1063C96.7803 87.3512 95.4349 85.8292 93.8364 84.5404C93.6767 83.7974 92.8936 82.6131 91.4871 80.9877Z" fill="black"/>
<path d="M69.9904 98.8913L68.788 96.2454L66.08 85.6398C65.3667 83.6523 64.9398 81.8556 64.7993 80.2496L64.8235 73.1271C64.7204 71.9493 64.7177 71.3022 64.8154 71.1858C63.5306 71.2982 61.7393 73.0193 59.4413 76.349C59.2553 76.689 58.9809 77.2524 58.6182 78.0393C54.749 85.6062 52.8264 94.4592 52.8504 104.598C52.1531 106.493 51.1085 107.502 49.7167 107.624C46.7697 107.234 45.1356 107.053 44.8144 107.082L43.7042 107.341L41.6164 107.523C39.1352 107.524 37.4449 106.701 36.5455 105.054C36.0704 104.556 35.7345 103.183 35.5378 100.935L35.3411 98.6861L34.0865 89.8953L32.9344 76.7261C32.8032 75.2272 32.5322 73.3629 32.1214 71.1332C31.6918 68.6895 31.3011 64.8397 30.9492 59.5841C30.5879 54.2214 30.2861 51.3889 30.0439 51.0864C29.7923 50.6769 29.6384 50.1509 29.5822 49.5085C29.526 48.8661 29.6304 48.2097 29.8954 47.5391C30.1604 46.8686 31.5449 46.0463 34.0489 45.072C35.3658 44.0937 36.5061 43.5624 37.4697 43.4781C38.9967 43.6681 40.9801 44.1419 43.4199 44.8994C45.054 45.0801 45.9928 46.5624 46.2363 49.3461C46.8533 53.9312 47.1436 57.2503 47.1075 59.3033C47.1784 61.3469 47.5926 65.4643 48.35 71.6554C54.9428 55.7588 61.2083 45.9864 67.1465 42.3382C67.635 41.756 68.4146 41.4181 69.4852 41.3244C70.5559 41.2307 71.834 41.6583 73.3195 42.6072C74.805 43.5561 75.8295 44.1677 76.393 44.4421C76.9564 44.7165 77.5921 45.2003 78.3001 45.8936C79.1151 46.5774 79.7461 47.0077 80.1931 47.1844C81.6653 49.2133 82.3732 54.222 82.3169 62.2105C82.3128 63.3976 82.2995 64.4776 82.2767 65.4506C82.2446 66.3165 82.3596 68.2484 82.6219 71.2462C82.8842 74.2441 83.1204 76.3272 83.3305 77.4956C83.9795 81.2148 84.3322 83.3956 84.3884 84.038L85.7253 90.0705C87.0114 92.4394 87.7153 94.3198 87.8371 95.7116C88.0566 96.987 89.2028 98.9905 91.2759 101.722C92.1658 103.263 91.9571 104.575 90.6495 105.661C88.6018 106.919 87.4616 107.45 87.2287 107.255C87.1123 107.157 86.5328 107.316 85.4902 107.73C84.457 108.252 82.5392 108.528 79.7367 108.557C78.3168 108.358 76.85 107.623 75.3363 106.353L72.7166 104.155C71.7476 102.945 71.037 101.605 70.5847 100.134C70.0025 99.6454 69.8044 99.2312 69.9904 98.8913Z" fill="black"/>
<path d="M6.7118 14.823C13.8732 14.0703 19.0485 14.9852 22.2378 17.5678C22.4288 19.3849 21.5872 23.2017 19.713 29.0182C19.4764 30.8802 18.9333 32.3962 18.0837 33.5662L16.2184 35.8695C15.7177 36.2464 15.2001 36.4629 14.6657 36.519C10.9189 37.8854 7.84741 37.4518 5.45129 35.2181C4.95633 34.6217 4.37135 34.1969 3.69632 33.9436C3.12819 33.6792 2.59953 32.7621 2.11036 31.1925C1.00233 29.9041 0.409002 28.8858 0.330362 28.1376C-0.579933 21.5331 1.38688 17.1117 6.23081 14.8735L6.7118 14.823ZM9.40608 52.7956C10.4188 52.1489 12.9868 52.4193 17.1101 53.6069C17.5826 53.9896 18.2688 54.3497 19.1689 54.6874L21.9532 56.502C22.4257 56.8846 22.7125 57.5569 22.8136 58.5189L24.2965 72.628C24.5212 74.7657 24.6165 76.7009 24.5825 78.4335L24.6836 79.3955C24.8236 83.8116 26.1299 93.6705 28.6028 108.972C29.238 111.931 28.7342 113.822 27.0914 114.643C25.2744 114.834 24.0705 114.69 23.4799 114.212C23.0299 114.043 22.6446 113.975 22.3239 114.009L21.2016 114.127L20.2733 114.549C19.9527 114.582 19.3423 114.43 18.4423 114.093C17.531 113.648 16.887 113.176 16.5101 112.675C16.2402 112.163 15.7789 111.887 15.1264 111.848C13.9057 111.544 13.1801 110.809 12.9497 109.645C11.1499 106.916 10.1685 105.29 10.0055 104.767C9.94929 104.233 9.72717 103.662 9.33911 103.054L7.07139 89.1896C6.90288 87.5863 6.88057 86.3459 7.00447 85.4683L6.60004 81.6204C6.58335 80.4334 6.46555 78.2844 6.24664 75.1735C6.0165 71.9556 5.90721 69.3735 5.91877 67.4271C5.4129 64.6705 5.10942 62.8112 5.00831 61.8492C4.9072 60.8873 4.88762 60.1869 4.94957 59.7481C3.65024 58.6959 3.53517 57.087 4.60436 54.9213C5.88155 53.7064 7.16146 53.0316 8.4441 52.8968L9.40608 52.7956Z" fill="black"/>
</svg>
